<svg width="3416" height="800" viewBox="0 0 3416 800" fill="none" xmlns="http://www.w3.org/2000/svg">
<path d="M1059.62 321.98H998.598V614.453H1059.62V457.23C1059.62 428.679 1064.86 408.228 1074.65 395.177L1074.65 395.172C1088.48 376.668 1105.04 367.773 1124.47 367.773C1134.63 367.773 1142.66 371.553 1148.92 379.197L1148.95 379.235L1148.98 379.273C1155.45 386.797 1158.85 396.742 1158.85 409.477C1158.85 411.115 1158.76 413.561 1158.57 416.859L1158.32 421.094H1221.63L1221.92 417.401C1222.31 412.332 1222.52 408.673 1222.52 406.547C1222.52 380.431 1214.18 358.857 1197.32 342.195C1180.66 325.336 1159.08 317 1132.97 317C1104.57 317 1080.07 327.481 1059.62 348.181V321.98Z" fill="#0000EE"/>
<path fill-rule="evenodd" clip-rule="evenodd" d="M1393.6 478.203H1590.3L1590.58 474.502C1591.16 466.694 1591.47 461.089 1591.47 457.797C1591.47 410.774 1580.81 374.419 1558.83 349.396C1536.78 324.28 1504.59 312 1462.96 312C1417.44 312 1382.82 327.335 1359.84 358.448L1359.83 358.456L1359.83 358.464C1338.56 387.55 1328 422.191 1328 462.191C1328 509.548 1340.2 546.965 1365.1 573.892L1365.11 573.903L1365.12 573.914C1390.26 600.68 1425.31 613.848 1469.7 613.848C1502.51 613.848 1528.74 608.126 1547.97 596.26L1547.98 596.252L1547.99 596.243C1567.4 584.06 1578.25 566.44 1580.32 543.706L1580.72 539.344H1515.86L1514.68 541.171C1507.05 552.957 1493.83 559.266 1473.8 559.266C1450.05 559.266 1430.85 552.227 1415.88 538.367C1400.95 524.351 1393.43 506.416 1393.42 484.222L1393.6 478.203ZM1508.78 383.597L1508.81 383.62L1508.83 383.642C1519.59 393.893 1525.45 407.209 1526.25 423.914H1393.98C1396.64 406.958 1403.76 393.559 1415.21 383.452L1415.23 383.442L1415.24 383.431C1427.69 372.26 1443.4 366.582 1462.66 366.582C1482.13 366.582 1497.36 372.353 1508.78 383.597Z" fill="#0000EE"/>
<path d="M2957.89 315.078H2824.23V376.691H2893.64V607.551H2957.89V315.078Z" fill="#0000EE"/>
<path d="M2957.89 185H2893.64V264.191H2957.89V185Z" fill="#0000EE"/>
<path fill-rule="evenodd" clip-rule="evenodd" d="M2593.35 400.816V421.133H2536.7C2497.64 421.133 2466.02 430.058 2442.27 448.329C2418.59 466.498 2406.73 491.126 2406.73 521.812C2406.73 549.058 2416.45 571.203 2435.96 587.845L2435.97 587.851L2435.98 587.858C2455.63 604.435 2481.52 612.531 2513.27 612.531C2543.53 612.531 2570.27 602.984 2593.35 583.968V607.551H2654.38V419.859C2654.38 381.726 2646 353.37 2628.28 335.862C2610.58 318.363 2581.84 310.098 2543.15 310.098C2504.25 310.098 2474.12 316.404 2453.27 329.536C2432.16 342.833 2420.95 362.893 2419.62 389.189L2419.41 393.391H2482.72L2483.65 390.696C2487.12 380.64 2493.58 373.155 2503.19 368.102C2512.91 362.991 2526.05 360.285 2542.86 360.285C2560.58 360.285 2573.13 363.922 2581.19 370.515C2589.11 376.982 2593.35 386.826 2593.35 400.816ZM2528.5 472.199H2593.35V487.242C2593.35 508.421 2585.78 526.121 2570.57 540.594C2555.34 555.082 2536.71 562.344 2514.44 562.344C2500.91 562.344 2490.03 558.177 2481.49 550.009C2473.14 541.639 2468.93 531.168 2468.93 518.297C2468.93 504.452 2474.15 493.508 2484.69 485.107C2495.53 476.626 2510 472.199 2528.5 472.199Z" fill="#0000EE"/>
<path d="M2172.44 499.84V185H2111.41V485.484C2111.41 527.049 2119.36 558.184 2136.09 578.005C2152.95 597.989 2179.7 607.551 2215.32 607.551H2272.96V553.262H2230.84C2210.58 553.262 2196.13 548.593 2186.75 539.963C2177.43 531.39 2172.44 518.274 2172.44 499.84Z" fill="#0000EE"/>
<path d="M1882.1 399.566H1947.02L1946.27 394.929C1942.03 368.633 1930.12 347.947 1910.47 333.201C1891.05 318.289 1866.11 311 1835.98 311C1797.38 311 1765.87 325.034 1741.83 353.115C1717.83 380.95 1706 417.299 1706 461.777C1706 484.472 1709.58 506.579 1716.75 528.081L1716.76 528.103L1716.77 528.124C1724.13 549.42 1734.05 566.751 1746.64 579.953C1767.69 602.42 1797.07 613.434 1834.22 613.434C1865.29 613.434 1891.53 604.693 1912.66 587.013C1933.83 569.304 1945.1 546.577 1946.32 519.084L1946.51 514.906H1881.32L1880.93 518.471C1879.67 529.936 1874.61 539.466 1865.59 547.221C1856.58 554.975 1845.99 558.852 1833.63 558.852C1812.6 558.852 1796.68 550.741 1785.36 534.503C1774.09 518.057 1768.2 494.082 1768.2 462.07C1768.2 428.934 1774.19 404.803 1785.54 389.042C1796.71 373.523 1813.48 365.582 1836.56 365.582C1847.93 365.582 1857.12 368.256 1864.36 373.35C1871.61 378.446 1877.26 386.197 1881.14 396.928L1882.1 399.566Z" fill="#0000EE"/>
<path d="M3182.89 315.078H3121.86V607.551H3182.89V410.484C3182.89 392.434 3185.87 379.59 3191.25 371.366C3196.43 363.437 3204.11 359.406 3214.93 359.406C3223.25 359.406 3228.8 361.753 3232.35 365.808C3236 369.963 3238.17 376.607 3238.17 386.461V607.551H3299.2V411.949C3299.2 393.402 3302.2 380.179 3307.65 371.704C3312.9 363.532 3320.65 359.406 3331.53 359.406C3339.79 359.406 3345.32 361.838 3348.9 366.105C3352.58 370.508 3354.77 377.547 3354.77 387.926V607.551H3415.8V387.926C3415.8 364.942 3409.74 346.059 3397.24 331.688C3384.68 317.24 3367.8 310.098 3347.05 310.098C3323.22 310.098 3303.26 316.933 3287.45 330.79C3281.33 323.393 3275.13 318.072 3268.8 315.174C3261.74 311.667 3252.06 310.098 3240.12 310.098C3219.39 310.098 3200.29 317.444 3182.89 331.835V315.078Z" fill="#0000EE"/>
<path d="M0 4C0 1.79086 1.79086 0 4 0H796C798.209 0 800 1.79086 800 4V796C800 798.209 798.209 800 796 800H4C1.79086 800 0 798.209 0 796V4Z" fill="#0000EE"/>
<path d="M108.351 800H4C1.79086 800 0 798.209 0 796V764.976L83.2745 383.684C83.7459 381.526 85.9189 379.776 88.128 379.776H196.128C198.337 379.776 199.746 381.526 199.275 383.684L108.351 800Z" fill="white"/>
<path d="M364.351 800H248.351L270.142 700.222C270.614 698.064 269.205 696.315 266.996 696.315H158.996C156.787 696.315 155.378 694.565 155.849 692.407L178.893 586.894C179.365 584.736 181.538 582.986 183.747 582.986H291.747C293.956 582.986 296.129 581.236 296.6 579.078L340.128 379.776C342.956 366.826 334.504 356.329 321.249 356.329H233.249C231.04 356.329 229.631 354.579 230.102 352.421L253.147 246.908C253.618 244.75 255.791 243 258 243H438C464.51 243 481.415 263.995 475.758 289.895L412.6 579.078C412.129 581.236 409.956 582.986 407.747 582.986H305.404C303.194 582.986 301.021 584.736 300.55 586.894L277.506 692.407C277.035 694.565 278.443 696.315 280.653 696.315H382.996C385.205 696.315 386.614 698.064 386.142 700.222L364.351 800Z" fill="white"/>
<path d="M113.147 246.908C113.618 244.75 115.791 243 118 243H226C228.209 243 229.618 244.75 229.147 246.908L206.102 352.421C205.631 354.579 203.458 356.329 201.249 356.329H93.2489C91.0398 356.329 89.631 354.579 90.1024 352.421L113.147 246.908Z" fill="white"/>
</svg>
