<svg width="802" height="800" viewBox="0 0 802 800" fill="none" xmlns="http://www.w3.org/2000/svg">
<rect width="200" height="200" transform="matrix(-1 -8.74228e-08 -8.74228e-08 1 1000 600)" fill="#3C3A9F"/>
<rect x="800" y="800" width="200" height="200" transform="rotate(-180 800 800)" fill="#2B64C6"/>
<path d="M800 800C800 773.736 794.827 747.728 784.776 723.463C774.725 699.198 759.993 677.15 741.421 658.579C722.85 640.007 700.802 625.275 676.537 615.224C652.272 605.173 626.264 600 600 600L600 800L800 800Z" fill="#3C3A9F"/>
<rect width="200" height="200" transform="matrix(1 8.74228e-08 8.74228e-08 -1 400 800)" fill="#3C3A9F"/>
<path d="M400 800C400 773.736 405.173 747.728 415.224 723.463C425.275 699.198 440.007 677.15 458.579 658.579C477.15 640.007 499.198 625.275 523.463 615.224C547.728 605.173 573.736 600 600 600L600 800L400 800Z" fill="#1D1F22"/>
<rect x="200" y="600" width="200" height="200" fill="#3C3A9F"/>
<rect x="200" y="600" width="200" height="100" fill="#1D1F22"/>
<path d="M300 800C355.228 800 400 755.228 400 700L200 700C200 755.228 244.772 800 300 800Z" fill="#1D1F22"/>
<rect width="200" height="200" transform="matrix(1 8.74228e-08 8.74228e-08 -1 0 800)" fill="#2B64C6"/>
<rect width="200" height="200" transform="matrix(-1 -8.74228e-08 -8.74228e-08 1 1000 400)" fill="#2B64C6"/>
<path d="M800 600C800 573.736 805.173 547.728 815.224 523.463C825.275 499.198 840.007 477.15 858.579 458.579C877.15 440.007 899.198 425.275 923.463 415.224C947.728 405.173 973.736 400 1000 400L1000 600L800 600Z" fill="#3C3A9F"/>
<rect x="800" y="600" width="200" height="200" transform="rotate(-180 800 600)" fill="#2B64C6"/>
<rect x="800" y="500" width="200" height="100" transform="rotate(-180 800 500)" fill="#1D1F22"/>
<path d="M700 600C644.772 600 600 555.228 600 500L800 500C800 555.228 755.228 600 700 600Z" fill="#1D1F22"/>
<rect width="200" height="200" transform="matrix(1 8.74228e-08 8.74228e-08 -1 400 600)" fill="#1D1F22"/>
<rect width="200" height="100" transform="matrix(1 8.74228e-08 8.74228e-08 -1 400 600)" fill="#3C3A9F"/>
<path d="M500 400C555.228 400 600 444.772 600 500L400 500C400 444.772 444.772 400 500 400Z" fill="#3C3A9F"/>
<rect x="200" y="400" width="200" height="200" fill="#1D1F22"/>
<path d="M300 500C355.228 500 400 455.228 400 400L200 400C200 455.228 244.772 500 300 500Z" fill="#2B64C6"/>
<rect width="200" height="200" transform="matrix(1 8.74228e-08 8.74228e-08 -1 0 600)" fill="#2B64C6"/>
<rect width="200" height="200" transform="matrix(-1 -8.74228e-08 -8.74228e-08 1 1000 200)" fill="#2B64C6"/>
<rect x="800" y="400" width="200" height="200" transform="rotate(-180 800 400)" fill="#1D1F22"/>
<rect width="200" height="200" transform="matrix(1 8.74228e-08 8.74228e-08 -1 400 400)" fill="#1D1F22"/>
<path d="M600 200C600 226.264 594.827 252.272 584.776 276.537C574.725 300.802 559.993 322.85 541.421 341.421C522.85 359.993 500.802 374.725 476.537 384.776C452.272 394.827 426.264 400 400 400L400 200L600 200Z" fill="#2B64C6"/>
<rect x="200" y="200" width="200" height="200" fill="#2B64C6"/>
<path d="M200 200C200 226.264 205.173 252.272 215.224 276.537C225.275 300.802 240.007 322.85 258.579 341.421C277.15 359.993 299.198 374.725 323.463 384.776C347.728 394.827 373.736 400 400 400L400 200L200 200Z" fill="#3C3A9F"/>
<rect width="200" height="200" transform="matrix(1 8.74228e-08 8.74228e-08 -1 0 400)" fill="#3C3A9F"/>
<path d="M100 300C155.228 300 200 344.772 200 400L-8.74228e-06 400C-3.91405e-06 344.772 44.7715 300 100 300Z" fill="#2B64C6"/>
<rect width="200" height="200" transform="matrix(-1 -8.74228e-08 -8.74228e-08 1 1000 0)" fill="#2B64C6"/>
<rect width="200" height="100" transform="matrix(-1 -8.74228e-08 -8.74228e-08 1 1000 0)" fill="#3C3A9F"/>
<path d="M900 200C955.228 200 1000 155.228 1000 100L800 100C800 155.228 844.772 200 900 200Z" fill="#3C3A9F"/>
<rect x="800" y="200" width="200" height="200" transform="rotate(-180 800 200)" fill="#3C3A9F"/>
<rect x="800" y="200" width="200" height="100" transform="rotate(-180 800 200)" fill="#1D1F22"/>
<path d="M700 8.74228e-06C644.772 3.91405e-06 600 44.7715 600 100L800 100C800 44.7715 755.228 1.35705e-05 700 8.74228e-06Z" fill="#1D1F22"/>
<rect width="200" height="200" transform="matrix(1 8.74228e-08 8.74228e-08 -1 400 200)" fill="#2B64C6"/>
<rect x="200" width="200" height="200" fill="#3C3A9F"/>
<rect width="200" height="200" transform="matrix(1 8.74228e-08 8.74228e-08 -1 0 200)" fill="#1D1F22"/>
<rect width="200" height="100" transform="matrix(1 8.74228e-08 8.74228e-08 -1 0 200)" fill="#3C3A9F"/>
<path d="M100 -8.74228e-06C155.228 -3.91405e-06 200 44.7715 200 100L-8.74228e-06 100C-3.91405e-06 44.7715 44.7715 -1.35705e-05 100 -8.74228e-06Z" fill="#3C3A9F"/>
</svg>
