<svg width="2456" height="864" viewBox="0 0 2456 864" fill="none" xmlns="http://www.w3.org/2000/svg">
<g clip-path="url(#clip0_5_74)">
<path d="M2455.19 156.717V19.883H1985.4V219.083C1949.08 80.8903 1835 0 1665.5 0C1484.02 0 1360.83 95.2159 1331.75 249.463C1304.92 92.8695 1186.85 0 1005.24 0C823.64 0 701.698 94.4749 671.992 247.364C648.028 99.1678 547.304 2.22294 408.388 2.22294C290.065 2.22294 223.165 72.863 208.687 164.498H69.0215V126.955H95.8563C150.524 125.843 176.236 96.0804 176.236 45.1998V45.5703V19.7595H0V863.365H176.361V591.425V591.796C176.361 541.039 150.649 511.153 95.8563 510.041H69.0215V472.498H208.562C223.041 564.133 288.942 635.884 407.264 635.884C545.557 635.884 645.782 540.174 670.994 392.349C699.326 545.361 822.766 638.107 1005.12 638.107C1142.41 638.107 1247.25 584.016 1303.05 484.601L1173.62 381.975C1151.27 464.841 1090.99 514.487 1003.99 514.487C936.221 514.487 886.047 486.577 857.34 436.19L856.965 436.437C844.609 415.443 821.768 403.71 787.819 402.97H760.984V365.427H954.818L1327.38 366.538C1346.11 534.864 1472.92 638.231 1665.25 638.231C1802.55 638.231 1907.39 584.139 1963.18 484.724L1833.75 382.099C1811.41 464.965 1751.12 514.61 1664.13 514.61C1596.36 514.61 1546.18 486.7 1517.47 436.314L1517.1 436.561C1504.74 415.566 1481.9 403.834 1447.95 403.093H1421.12V365.55H1614.95L1985.02 366.661V620.694H2161.38V276.262C2161.38 225.505 2135.67 195.619 2081 194.507H2054.17V156.964H2454.82L2455.19 156.717ZM338.118 501.273C241.014 501.273 176.361 428.41 176.361 319.115C176.361 209.821 241.138 136.958 338.118 136.958C435.098 136.958 500.999 208.709 500.999 319.115C500.999 429.521 435.098 501.273 338.118 501.273ZM836.745 256.132C855.717 173.266 914.878 126.955 1005.24 126.955C1095.61 126.955 1160.39 174.377 1170.37 256.132H836.745ZM1497.01 256.132C1515.98 173.266 1575.14 126.955 1665.5 126.955C1755.87 126.955 1820.65 174.377 1830.63 256.132H1497.01Z" fill="url(#paint0_linear_5_74)"/>
</g>
<defs>
<linearGradient id="paint0_linear_5_74" x1="2573.39" y1="423.387" x2="191.935" y2="316.098" gradientUnits="userSpaceOnUse">
<stop stop-color="#FFE600"/>
<stop offset="1" stop-color="#FF3A33"/>
</linearGradient>
<clipPath id="clip0_5_74">
<rect width="2455.19" height="863.365" fill="white"/>
</clipPath>
</defs>
</svg>
