<svg xmlns="http://www.w3.org/2000/svg" xmlns:xlink="http://www.w3.org/1999/xlink" version="1.1" width="256" height="256" viewBox="0 0 256 256" xml:space="preserve">

<defs>
</defs>
<g style="stroke: none; stroke-width: 0; stroke-dasharray: none; stroke-linecap: butt; stroke-linejoin: miter; stroke-miterlimit: 10; fill: none; fill-rule: nonzero; opacity: 1;" transform="translate(1.4065934065934016 1.4065934065934016) scale(2.81 2.81)" >
	<circle cx="45" cy="45" r="45" style="stroke: none; stroke-width: 1; stroke-dasharray: none; stroke-linecap: butt; stroke-linejoin: miter; stroke-miterlimit: 10; fill: rgb(0,0,102); fill-rule: nonzero; opacity: 1;" transform="  matrix(1 0 0 1 0 0) "/>
	<path d="M 67.422 36.949 l -2.634 -1.947 l -2.731 1.806 l 1.028 -3.12 l -2.553 -2.053 l 3.269 0.019 l 1.153 -3.075 l 0.994 3.131 l 3.264 0.153 l -2.655 1.916 L 67.422 36.949 z" style="stroke: none; stroke-width: 1; stroke-dasharray: none; stroke-linecap: butt; stroke-linejoin: miter; stroke-miterlimit: 10; fill: rgb(243,244,245); fill-rule: nonzero; opacity: 1;" transform=" matrix(1 0 0 1 0 0) " stroke-linecap="round" />
	<path d="M 66.365 35.373 l -1.558 -1.127 l -1.593 1.077 l 0.585 -1.838 l -1.512 -1.19 l 1.921 -0.009 l 0.658 -1.813 l 0.601 1.833 l 1.918 0.069 l -1.547 1.142 L 66.365 35.373 z" style="stroke: none; stroke-width: 1; stroke-dasharray: none; stroke-linecap: butt; stroke-linejoin: miter; stroke-miterlimit: 10; fill: rgb(255,0,0); fill-rule: nonzero; opacity: 1;" transform=" matrix(1 0 0 1 0 0) " stroke-linecap="round" />
	<path d="M 57.313 53.731 l -2.634 -1.947 l -2.731 1.806 l 1.028 -3.12 l -2.553 -2.053 l 3.269 0.019 l 1.153 -3.075 l 0.994 3.131 l 3.264 0.152 l -2.655 1.916 L 57.313 53.731 z" style="stroke: none; stroke-width: 1; stroke-dasharray: none; stroke-linecap: butt; stroke-linejoin: miter; stroke-miterlimit: 10; fill: rgb(243,244,245); fill-rule: nonzero; opacity: 1;" transform=" matrix(1 0 0 1 0 0) " stroke-linecap="round" />
	<path d="M 56.256 52.154 l -1.558 -1.127 l -1.593 1.077 l 0.585 -1.838 l -1.512 -1.19 l 1.921 -0.009 l 0.658 -1.813 l 0.601 1.833 l 1.918 0.069 l -1.547 1.142 L 56.256 52.154 z" style="stroke: none; stroke-width: 1; stroke-dasharray: none; stroke-linecap: butt; stroke-linejoin: miter; stroke-miterlimit: 10; fill: rgb(255,0,0); fill-rule: nonzero; opacity: 1;" transform=" matrix(1 0 0 1 0 0) " stroke-linecap="round" />
	<path d="M 78.001 52.077 l -2.634 -1.947 l -2.731 1.806 l 1.028 -3.12 l -2.553 -2.053 l 3.269 0.019 l 1.153 -3.075 l 0.994 3.131 l 3.264 0.152 l -2.654 1.917 L 78.001 52.077 z" style="stroke: none; stroke-width: 1; stroke-dasharray: none; stroke-linecap: butt; stroke-linejoin: miter; stroke-miterlimit: 10; fill: rgb(243,244,245); fill-rule: nonzero; opacity: 1;" transform=" matrix(1 0 0 1 0 0) " stroke-linecap="round" />
	<path d="M 27.452 24.53 V 12.82 h -8.276 v 11.709 l -8.656 -8.436 c -1.438 1.713 -2.754 3.533 -3.927 5.449 L 14.62 29.2 H 2.86 c -0.984 2.622 -1.724 5.362 -2.206 8.19 h 13.605 L 0.397 50.9 c 0.127 0.966 0.277 1.925 0.464 2.87 h 5.396 l 12.92 -12.327 V 53.77 h 8.276 V 41.443 l 12.921 12.328 h 8.804 L 32.371 37.39 h 16.805 V 29.2 H 32.01 l 17.168 -16.38 v 0 l -9.731 0.019 L 27.452 24.53 z" style="stroke: none; stroke-width: 1; stroke-dasharray: none; stroke-linecap: butt; stroke-linejoin: miter; stroke-miterlimit: 10; fill: rgb(243,244,245); fill-rule: nonzero; opacity: 1;" transform=" matrix(1 0 0 1 0 0) " stroke-linecap="round" />
	<path d="M 45.952 12.82 L 3.944 53.769 l -3.269 0.002 L 42.859 12.82 H 45.952 L 45.952 12.82 z" style="stroke: none; stroke-width: 1; stroke-dasharray: none; stroke-linecap: butt; stroke-linejoin: miter; stroke-miterlimit: 10; fill: rgb(255,0,0); fill-rule: nonzero; opacity: 1;" transform=" matrix(1 0 0 1 0 0) " stroke-linecap="round" />
	<path d="M 76.945 50.501 l -1.558 -1.127 l -1.593 1.077 l 0.585 -1.838 l -1.512 -1.19 l 1.921 -0.009 l 0.658 -1.813 l 0.601 1.833 l 1.918 0.069 l -1.547 1.142 L 76.945 50.501 z" style="stroke: none; stroke-width: 1; stroke-dasharray: none; stroke-linecap: butt; stroke-linejoin: miter; stroke-miterlimit: 10; fill: rgb(255,0,0); fill-rule: nonzero; opacity: 1;" transform=" matrix(1 0 0 1 0 0) " stroke-linecap="round" />
	<path d="M 67.187 75.949 l -2.634 -1.947 l -2.731 1.806 l 1.028 -3.12 l -2.553 -2.053 l 3.269 0.019 l 1.153 -3.075 l 0.994 3.131 l 3.264 0.153 l -2.655 1.916 L 67.187 75.949 z" style="stroke: none; stroke-width: 1; stroke-dasharray: none; stroke-linecap: butt; stroke-linejoin: miter; stroke-miterlimit: 10; fill: rgb(243,244,245); fill-rule: nonzero; opacity: 1;" transform=" matrix(1 0 0 1 0 0) " stroke-linecap="round" />
	<path d="M 66.13 74.373 l -1.558 -1.127 l -1.593 1.077 l 0.585 -1.838 l -1.512 -1.19 l 1.921 -0.009 l 0.658 -1.813 l 0.601 1.833 l 1.918 0.069 l -1.547 1.142 L 66.13 74.373 z" style="stroke: none; stroke-width: 1; stroke-dasharray: none; stroke-linecap: butt; stroke-linejoin: miter; stroke-miterlimit: 10; fill: rgb(255,0,0); fill-rule: nonzero; opacity: 1;" transform=" matrix(1 0 0 1 0 0) " stroke-linecap="round" />
	<path d="M 25.643 12.82 h -4.655 v 18.428 H 2.148 c -0.429 1.339 -0.794 2.705 -1.098 4.095 h 19.938 V 53.77 h 4.655 V 35.343 h 23.533 v -4.095 H 25.643 V 12.82 z" style="stroke: none; stroke-width: 1; stroke-dasharray: none; stroke-linecap: butt; stroke-linejoin: miter; stroke-miterlimit: 10; fill: rgb(255,0,0); fill-rule: nonzero; opacity: 1;" transform=" matrix(1 0 0 1 0 0) " stroke-linecap="round" />
	<path d="M 7.756 19.74 l 35.11 34.029 h 3.094 l 0 -0.001 L 9.11 17.859 C 8.644 18.475 8.191 19.101 7.756 19.74 z" style="stroke: none; stroke-width: 1; stroke-dasharray: none; stroke-linecap: butt; stroke-linejoin: miter; stroke-miterlimit: 10; fill: rgb(255,0,0); fill-rule: nonzero; opacity: 1;" transform=" matrix(1 0 0 1 0 0) " stroke-linecap="round" />
</g>
</svg>